<svg width="1440" height="275" viewBox="0 0 1440 275" fill="none" xmlns="http://www.w3.org/2000/svg">
<path fill-rule="evenodd" clip-rule="evenodd" d="M537.81 2.6504C567.31 -11.8496 580.81 36.1503 644.31 73.6503C718.901 117.7 759.81 42.1504 836.31 51.6504C912.81 61.1504 899.81 86.1503 974.81 86.1503C1049.81 86.1503 1073.92 120.587 1148.92 166.65C1212.42 205.65 1538.18 21.9999 1486.5 280C1450.3 460.749 126.229 321.242 -8.58224 280.65C-126.116 245.26 38.4669 97.6687 156.81 126.65C230.31 144.65 206.413 193.139 331.918 166.65C431.416 145.65 378.968 112.291 456.81 86.1503C523.81 63.6504 508.309 17.1504 537.81 2.6504Z" fill="#E3DDCE"/>
<ellipse cx="719.5" cy="269" rx="840.5" ry="157" fill="#FEF4DA"/>
</svg>
